<svg width="2510" height="1246" xmlns="http://www.w3.org/2000/svg" xmlns:xlink="http://www.w3.org/1999/xlink" xml:space="preserve" overflow="hidden"><defs><clipPath id="clip0"><rect x="655" y="454" width="2510" height="1246"/></clipPath></defs><g clip-path="url(#clip0)" transform="translate(-655 -454)"><path d="M1391.13 739.084 1554.02 739.084 1554.02 890.491 1391.13 890.491Z" fill="#8FAADC" fill-rule="evenodd"/><path d="M1554.02 739.084 1716.92 739.084 1716.92 890.491 1554.02 890.491Z" fill="#8FAADC" fill-rule="evenodd"/><path d="M1716.92 739.084 1879.81 739.084 1879.81 890.491 1716.92 890.491Z" fill="#8FAADC" fill-rule="evenodd"/><path d="M1879.81 739.084 2042.7 739.084 2042.7 890.491 1879.81 890.491Z" fill="#8FAADC" fill-rule="evenodd"/><path d="M2042.7 739.084 2205.6 739.084 2205.6 890.491 2042.7 890.491Z" fill="#8FAADC" fill-rule="evenodd"/><path d="M1391.13 1041.9 1554.02 1041.9 1554.02 1193.31 1391.13 1193.31Z" fill="#8FAADC" fill-rule="evenodd"/><path d="M1554.02 1041.9 1716.92 1041.9 1716.92 1193.31 1554.02 1193.31Z" fill="#8FAADC" fill-rule="evenodd"/><path d="M1716.92 1041.9 1879.81 1041.9 1879.81 1193.31 1716.92 1193.31Z" fill="#8FAADC" fill-rule="evenodd"/><path d="M1879.81 1041.9 2042.7 1041.9 2042.7 1193.31 1879.81 1193.31Z" fill="#8FAADC" fill-rule="evenodd"/><path d="M2042.7 1041.9 2205.6 1041.9 2205.6 1193.31 2042.7 1193.31Z" fill="#8FAADC" fill-rule="evenodd"/><path d="M1554.02 585.385 1554.02 1347" stroke="#000000" stroke-width="4.58333" stroke-linejoin="round" stroke-miterlimit="10" fill="none" fill-rule="evenodd"/><path d="M1716.92 585.385 1716.92 1347" stroke="#000000" stroke-width="4.58333" stroke-linejoin="round" stroke-miterlimit="10" fill="none" fill-rule="evenodd"/><path d="M1879.81 585.385 1879.81 1347" stroke="#000000" stroke-width="4.58333" stroke-linejoin="round" stroke-miterlimit="10" fill="none" fill-rule="evenodd"/><path d="M2042.7 585.385 2042.7 1347" stroke="#000000" stroke-width="4.58333" stroke-linejoin="round" stroke-miterlimit="10" fill="none" fill-rule="evenodd"/><path d="M1388.84 739.084 2207.89 739.084" stroke="#000000" stroke-width="4.58333" stroke-linejoin="round" stroke-miterlimit="10" fill="none" fill-rule="evenodd"/><path d="M1388.84 890.491 2207.89 890.491" stroke="#000000" stroke-width="4.58333" stroke-linejoin="round" stroke-miterlimit="10" fill="none" fill-rule="evenodd"/><path d="M1388.84 1041.9 2207.89 1041.9" stroke="#000000" stroke-width="4.58333" stroke-linejoin="round" stroke-miterlimit="10" fill="none" fill-rule="evenodd"/><path d="M1388.84 1193.31 2207.89 1193.31" stroke="#000000" stroke-width="4.58333" stroke-linejoin="round" stroke-miterlimit="10" fill="none" fill-rule="evenodd"/><path d="M1391.13 585.385 1391.13 1347" stroke="#000000" stroke-width="4.58333" stroke-linejoin="round" stroke-miterlimit="10" fill="none" fill-rule="evenodd"/><path d="M2205.6 585.385 2205.6 1347" stroke="#000000" stroke-width="4.58333" stroke-linejoin="round" stroke-miterlimit="10" fill="none" fill-rule="evenodd"/><path d="M1388.84 587.677 2207.89 587.677" stroke="#000000" stroke-width="4.58333" stroke-linejoin="round" stroke-miterlimit="10" fill="none" fill-rule="evenodd"/><path d="M1388.84 1344.71 2207.89 1344.71" stroke="#000000" stroke-width="4.58333" stroke-linejoin="round" stroke-miterlimit="10" fill="none" fill-rule="evenodd"/><text font-family="Cambria Math,Cambria Math_MSFontService,sans-serif" font-weight="400" font-size="73" transform="matrix(1 0 0 1 2103.81 690)">0</text><text font-family="Cambria Math,Cambria Math_MSFontService,sans-serif" font-weight="400" font-size="73" transform="matrix(1 0 0 1 1940.92 690)">0</text><text font-family="Cambria Math,Cambria Math_MSFontService,sans-serif" font-weight="400" font-size="73" transform="matrix(1 0 0 1 1778.02 690)">0</text><text font-family="Cambria Math,Cambria Math_MSFontService,sans-serif" font-weight="400" font-size="73" transform="matrix(1 0 0 1 1615.13 690)">0</text><text font-family="Cambria Math,Cambria Math_MSFontService,sans-serif" font-weight="400" font-size="73" transform="matrix(1 0 0 1 1452.24 690)">0</text><text font-family="Cambria Math,Cambria Math_MSFontService,sans-serif" font-weight="400" font-size="73" transform="matrix(1 0 0 1 2103.81 842)">1</text><text font-family="Cambria Math,Cambria Math_MSFontService,sans-serif" font-weight="400" font-size="73" transform="matrix(1 0 0 1 1940.92 842)">0</text><text font-family="Cambria Math,Cambria Math_MSFontService,sans-serif" font-weight="400" font-size="73" transform="matrix(1 0 0 1 1778.02 842)">0</text><text font-family="Cambria Math,Cambria Math_MSFontService,sans-serif" font-weight="400" font-size="73" transform="matrix(1 0 0 1 1615.13 842)">1</text><text font-family="Cambria Math,Cambria Math_MSFontService,sans-serif" font-weight="400" font-size="73" transform="matrix(1 0 0 1 1452.24 842)">1</text><text font-family="Cambria Math,Cambria Math_MSFontService,sans-serif" font-weight="400" font-size="73" transform="matrix(1 0 0 1 2103.81 993)">0</text><text font-family="Cambria Math,Cambria Math_MSFontService,sans-serif" font-weight="400" font-size="73" transform="matrix(1 0 0 1 1940.92 993)">0</text><text font-family="Cambria Math,Cambria Math_MSFontService,sans-serif" font-weight="400" font-size="73" transform="matrix(1 0 0 1 1778.02 993)">0</text><text font-family="Cambria Math,Cambria Math_MSFontService,sans-serif" font-weight="400" font-size="73" transform="matrix(1 0 0 1 1615.13 993)">0</text><text font-family="Cambria Math,Cambria Math_MSFontService,sans-serif" font-weight="400" font-size="73" transform="matrix(1 0 0 1 1452.24 993)">0</text><text font-family="Cambria Math,Cambria Math_MSFontService,sans-serif" font-weight="400" font-size="73" transform="matrix(1 0 0 1 2103.81 1145)">0</text><text font-family="Cambria Math,Cambria Math_MSFontService,sans-serif" font-weight="400" font-size="73" transform="matrix(1 0 0 1 1940.92 1145)">1</text><text font-family="Cambria Math,Cambria Math_MSFontService,sans-serif" font-weight="400" font-size="73" transform="matrix(1 0 0 1 1778.02 1145)">1</text><text font-family="Cambria Math,Cambria Math_MSFontService,sans-serif" font-weight="400" font-size="73" transform="matrix(1 0 0 1 1615.13 1145)">0</text><text font-family="Cambria Math,Cambria Math_MSFontService,sans-serif" font-weight="400" font-size="73" transform="matrix(1 0 0 1 1452.24 1145)">0</text><text font-family="Cambria Math,Cambria Math_MSFontService,sans-serif" font-weight="400" font-size="73" transform="matrix(1 0 0 1 2103.81 1296)">0</text><text font-family="Cambria Math,Cambria Math_MSFontService,sans-serif" font-weight="400" font-size="73" transform="matrix(1 0 0 1 1940.92 1296)">0</text><text font-family="Cambria Math,Cambria Math_MSFontService,sans-serif" font-weight="400" font-size="73" transform="matrix(1 0 0 1 1778.02 1296)">0</text><text font-family="Cambria Math,Cambria Math_MSFontService,sans-serif" font-weight="400" font-size="73" transform="matrix(1 0 0 1 1615.13 1296)">0</text><text font-family="Cambria Math,Cambria Math_MSFontService,sans-serif" font-weight="400" font-size="73" transform="matrix(1 0 0 1 1452.24 1296)">0</text><path d="M1330.65 657.219 1333.04 657.219 1327.2 683.237C1326.61 685.885 1326.31 687.884 1326.31 689.235 1326.31 690.316 1326.48 691.099 1326.84 691.586 1327.19 692.072 1327.74 692.315 1328.5 692.315 1329.31 692.315 1330.17 691.984 1331.09 691.322 1332.01 690.66 1333.31 689.397 1334.98 687.533L1337.29 689.802C1334.64 692.585 1332.5 694.477 1330.85 695.476 1329.2 696.476 1327.35 696.976 1325.3 696.976 1323.54 696.976 1322.13 696.334 1321.08 695.051 1320.03 693.767 1319.5 692.126 1319.5 690.127 1319.5 688.073 1319.88 685.453 1320.63 682.264L1323.67 669.012C1324.3 666.31 1324.61 664.284 1324.61 662.933 1324.61 661.717 1324.32 660.893 1323.74 660.461 1323.15 660.028 1322.01 659.785 1320.31 659.731L1320.76 657.583ZM1329.55 641.697 1336.72 641.697 1334.86 649.559 1327.69 649.559Z" fill-rule="evenodd"/><text fill="#000000" fill-opacity="0" font-family="Arial,Arial_MSFontService,sans-serif" font-size="55.2793" x="1319.5" y="690.066">ğ‘–</text><path d="M1358.38 674.808 1360.2 674.808C1360.16 675.9 1360.13 676.878 1360.11 677.742 1360.09 678.605 1360.08 679.444 1360.07 680.259 1360.06 681.073 1360.05 681.877 1360.05 682.671L1360.05 705.308C1360.05 705.923 1360.07 706.455 1360.11 706.901 1360.15 707.348 1360.21 707.725 1360.3 708.033 1360.39 708.341 1360.51 708.604 1360.66 708.823 1360.81 709.041 1360.98 709.23 1361.18 709.388 1361.42 709.627 1361.74 709.81 1362.14 709.939 1362.53 710.069 1363.04 710.178 1363.66 710.267 1364.27 710.356 1365.01 710.426 1365.87 710.476 1366.74 710.525 1367.78 710.56 1368.99 710.58L1368.99 713.171 1345.37 713.171 1345.37 710.58C1346.54 710.54 1347.53 710.495 1348.35 710.446 1349.16 710.396 1349.85 710.327 1350.43 710.237 1351.01 710.148 1351.47 710.049 1351.82 709.939 1352.16 709.83 1352.47 709.696 1352.72 709.537 1353 709.359 1353.24 709.165 1353.44 708.957 1353.64 708.748 1353.8 708.485 1353.92 708.167 1354.03 707.85 1354.13 707.462 1354.2 707.006 1354.27 706.549 1354.3 705.983 1354.3 705.308L1354.3 683.952C1354.3 683.177 1354.15 682.631 1353.86 682.314 1353.56 681.996 1353.13 681.837 1352.58 681.837 1351.96 681.837 1351.05 682.155 1349.83 682.79 1348.62 683.426 1347.05 684.369 1345.13 685.62 1344.87 685.163 1344.63 684.706 1344.41 684.25 1344.2 683.793 1343.97 683.326 1343.73 682.85 1346.19 681.5 1348.63 680.154 1351.04 678.814 1353.45 677.474 1355.9 676.138 1358.38 674.808Z" fill-rule="evenodd"/><text fill="#000000" fill-opacity="0" font-family="Arial,Arial_MSFontService,sans-serif" font-size="38.3633" x="1343.73" y="708.376">1</text><path d="M1330.65 806.196 1333.04 806.196 1327.2 832.214C1326.61 834.862 1326.31 836.861 1326.31 838.212 1326.31 839.293 1326.48 840.076 1326.84 840.563 1327.19 841.049 1327.74 841.292 1328.5 841.292 1329.31 841.292 1330.17 840.961 1331.09 840.299 1332.01 839.637 1333.31 838.374 1334.98 836.51L1337.29 838.78C1334.64 841.562 1332.5 843.454 1330.85 844.453 1329.2 845.453 1327.35 845.953 1325.3 845.953 1323.54 845.953 1322.13 845.311 1321.08 844.028 1320.03 842.744 1319.5 841.103 1319.5 839.104 1319.5 837.05 1319.88 834.43 1320.63 831.241L1323.67 817.989C1324.3 815.287 1324.61 813.261 1324.61 811.91 1324.61 810.694 1324.32 809.87 1323.74 809.438 1323.15 809.005 1322.01 808.762 1320.31 808.708L1320.76 806.56ZM1329.55 790.674 1336.72 790.674 1334.86 798.536 1327.69 798.536Z" fill-rule="evenodd"/><text fill="#000000" fill-opacity="0" font-family="Arial,Arial_MSFontService,sans-serif" font-size="55.2793" x="1319.5" y="839.043">ğ‘–</text><path d="M1357.96 823.576C1360.03 823.576 1361.79 823.81 1363.25 824.276 1364.71 824.743 1365.89 825.373 1366.81 826.168 1367.72 826.962 1368.38 827.915 1368.79 829.027 1369.2 830.139 1369.4 831.34 1369.4 832.631 1369.4 833.406 1369.34 834.125 1369.24 834.791 1369.13 835.456 1368.94 836.111 1368.67 836.756 1368.4 837.402 1368.05 838.052 1367.61 838.707 1367.18 839.363 1366.63 840.058 1365.97 840.792 1365.48 841.428 1364.83 842.162 1364.04 842.996 1363.24 843.83 1362.38 844.724 1361.43 845.677 1360.49 846.63 1359.5 847.623 1358.47 848.656 1357.44 849.688 1356.43 850.711 1355.46 851.723 1354.49 852.736 1353.59 853.719 1352.78 854.672 1351.97 855.625 1351.3 856.499 1350.78 857.293L1361.8 857.293C1362.74 857.293 1363.48 857.258 1364.04 857.189 1364.59 857.119 1365.06 856.966 1365.42 856.727 1365.79 856.489 1366.1 856.127 1366.36 855.64 1366.62 855.154 1366.92 854.483 1367.26 853.63L1370.03 853.63C1369.93 855.039 1369.83 856.459 1369.74 857.889 1369.65 859.319 1369.56 860.738 1369.46 862.148L1344.23 862.148 1344.23 860.599C1344.71 859.527 1345.26 858.47 1345.9 857.427 1346.53 856.385 1347.25 855.327 1348.04 854.255 1348.84 853.183 1349.74 852.076 1350.75 850.934 1351.77 849.792 1352.89 848.606 1354.12 847.375 1355.99 845.508 1357.51 843.915 1358.68 842.594 1359.85 841.274 1360.77 840.097 1361.45 839.065 1362.12 838.032 1362.58 837.079 1362.83 836.205 1363.08 835.332 1363.2 834.398 1363.2 833.406 1363.2 832.393 1363.06 831.46 1362.77 830.606 1362.48 829.752 1362.07 829.027 1361.54 828.431 1361 827.836 1360.32 827.369 1359.5 827.031 1358.67 826.694 1357.72 826.525 1356.65 826.525 1354.8 826.525 1353.26 827.027 1352.01 828.029 1350.75 829.032 1349.78 830.487 1349.09 832.393L1345.18 832.393 1345.18 826.585C1347.73 825.532 1350.06 824.768 1352.2 824.291 1354.33 823.815 1356.25 823.576 1357.96 823.576Z" fill-rule="evenodd"/><text fill="#000000" fill-opacity="0" font-family="Arial,Arial_MSFontService,sans-serif" font-size="38.5718" x="1344.23" y="857.327">2</text><path d="M1330.65 954.219 1333.04 954.219 1327.2 980.237C1326.61 982.885 1326.31 984.884 1326.31 986.235 1326.31 987.316 1326.48 988.099 1326.84 988.586 1327.19 989.072 1327.74 989.315 1328.5 989.315 1329.31 989.315 1330.17 988.984 1331.09 988.322 1332.01 987.66 1333.31 986.397 1334.98 984.533L1337.29 986.802C1334.64 989.585 1332.5 991.477 1330.85 992.476 1329.2 993.476 1327.35 993.976 1325.3 993.976 1323.54 993.976 1322.13 993.334 1321.08 992.051 1320.03 990.767 1319.5 989.126 1319.5 987.127 1319.5 985.073 1319.88 982.453 1320.63 979.264L1323.67 966.012C1324.3 963.31 1324.61 961.284 1324.61 959.933 1324.61 958.717 1324.32 957.893 1323.74 957.461 1323.15 957.028 1322.01 956.785 1320.31 956.731L1320.76 954.583ZM1329.55 938.697 1336.72 938.697 1334.86 946.559 1327.69 946.559Z" fill-rule="evenodd"/><text fill="#000000" fill-opacity="0" font-family="Arial,Arial_MSFontService,sans-serif" font-size="55.2793" x="1319.5" y="987.066">ğ‘–</text><path d="M1357.9 971.599C1359.49 971.599 1360.98 971.768 1362.36 972.106 1363.74 972.443 1364.93 972.955 1365.94 973.64 1366.96 974.325 1367.75 975.179 1368.31 976.201 1368.88 977.224 1369.16 978.41 1369.16 979.76 1369.16 981.031 1368.98 982.153 1368.63 983.126 1368.27 984.099 1367.72 984.983 1366.97 985.777 1366.23 986.571 1365.31 987.291 1364.23 987.937 1363.15 988.582 1361.9 989.202 1360.49 989.798L1360.49 990.156C1361.82 990.394 1363.07 990.776 1364.22 991.302 1365.37 991.828 1366.38 992.494 1367.24 993.298 1368.1 994.102 1368.78 995.03 1369.28 996.083 1369.78 997.135 1370.03 998.297 1370.03 999.568 1370.03 1001.16 1369.73 1002.63 1369.13 1003.99 1368.54 1005.35 1367.64 1006.53 1366.45 1007.52 1365.26 1008.51 1363.79 1009.29 1362.04 1009.84 1360.3 1010.4 1358.25 1010.68 1355.91 1010.68 1354.06 1010.68 1352.18 1010.49 1350.28 1010.13 1348.37 1009.76 1346.56 1009.28 1344.86 1008.68L1344.86 1002.25 1348.7 1002.25C1349.02 1003.24 1349.39 1004.09 1349.83 1004.79 1350.27 1005.5 1350.78 1006.08 1351.36 1006.52 1351.95 1006.97 1352.63 1007.29 1353.39 1007.49 1354.15 1007.69 1355.02 1007.79 1356 1007.79 1358.56 1007.79 1360.5 1007.18 1361.82 1005.96 1363.14 1004.74 1363.8 1002.88 1363.8 1000.4 1363.8 997.761 1362.93 995.76 1361.19 994.4 1359.46 993.04 1356.88 992.36 1353.46 992.36L1350.84 992.36 1350.84 989.5C1352.93 989.401 1354.73 989.108 1356.25 988.622 1357.77 988.135 1359.03 987.505 1360.05 986.73 1361.06 985.956 1361.81 985.052 1362.31 984.02 1362.81 982.987 1363.06 981.885 1363.06 980.714 1363.06 978.807 1362.49 977.303 1361.36 976.201 1360.23 975.099 1358.59 974.548 1356.44 974.548 1354.64 974.548 1353.12 975.044 1351.9 976.037 1350.68 977.03 1349.74 978.51 1349.09 980.475L1345.3 980.475 1345.3 974.608C1347.65 973.615 1349.86 972.865 1351.93 972.359 1354.01 971.853 1356 971.599 1357.9 971.599Z" fill-rule="evenodd"/><text fill="#000000" fill-opacity="0" font-family="Arial,Arial_MSFontService,sans-serif" font-size="39.0781" x="1344.86" y="1005.79">3</text><path d="M1330.65 1103.2 1333.04 1103.2 1327.2 1129.21C1326.61 1131.86 1326.31 1133.86 1326.31 1135.21 1326.31 1136.29 1326.48 1137.08 1326.84 1137.56 1327.19 1138.05 1327.74 1138.29 1328.5 1138.29 1329.31 1138.29 1330.17 1137.96 1331.09 1137.3 1332.01 1136.64 1333.31 1135.37 1334.98 1133.51L1337.29 1135.78C1334.64 1138.56 1332.5 1140.45 1330.85 1141.45 1329.2 1142.45 1327.35 1142.95 1325.3 1142.95 1323.54 1142.95 1322.13 1142.31 1321.08 1141.03 1320.03 1139.74 1319.5 1138.1 1319.5 1136.1 1319.5 1134.05 1319.88 1131.43 1320.63 1128.24L1323.67 1114.99C1324.3 1112.29 1324.61 1110.26 1324.61 1108.91 1324.61 1107.69 1324.32 1106.87 1323.74 1106.44 1323.15 1106.01 1322.01 1105.76 1320.31 1105.71L1320.76 1103.56ZM1329.55 1087.67 1336.72 1087.67 1334.86 1095.54 1327.69 1095.54Z" fill-rule="evenodd"/><text fill="#000000" fill-opacity="0" font-family="Arial,Arial_MSFontService,sans-serif" font-size="55.2793" x="1319.5" y="1136.04">ğ‘–</text><path d="M1359.36 1127.96C1357.46 1130.72 1355.55 1133.46 1353.66 1136.18 1351.76 1138.9 1349.85 1141.63 1347.92 1144.37L1347.92 1144.73 1359.36 1144.73 1359.36 1138.75C1359.36 1138.07 1359.37 1137.24 1359.39 1136.24 1359.41 1135.25 1359.44 1134.24 1359.47 1133.22 1359.5 1132.2 1359.53 1131.22 1359.57 1130.3 1359.61 1129.38 1359.65 1128.6 1359.69 1127.96ZM1360.23 1120.99 1364.96 1120.99 1364.96 1144.73 1365.5 1144.73C1366.31 1144.73 1366.97 1144.69 1367.48 1144.61 1367.98 1144.53 1368.39 1144.37 1368.7 1144.12 1369.01 1143.87 1369.27 1143.53 1369.47 1143.08 1369.68 1142.63 1369.91 1142.05 1370.14 1141.34L1372.68 1141.34C1372.62 1142.43 1372.55 1143.51 1372.48 1144.58 1372.41 1145.66 1372.35 1146.75 1372.29 1147.86L1364.96 1147.86 1364.96 1151.76C1364.96 1152.91 1364.99 1153.81 1365.04 1154.44 1365.09 1155.08 1365.23 1155.57 1365.48 1155.93 1365.73 1156.29 1366.1 1156.56 1366.58 1156.74 1367.07 1156.91 1367.75 1157.12 1368.63 1157.36L1368.63 1159.15 1355.76 1159.15 1355.76 1157.36C1356.35 1157.2 1356.86 1157.06 1357.28 1156.93 1357.69 1156.8 1358.04 1156.65 1358.32 1156.48 1358.6 1156.31 1358.8 1156.12 1358.93 1155.89 1359.06 1155.66 1359.16 1155.37 1359.23 1155.02 1359.3 1154.68 1359.34 1154.24 1359.35 1153.71 1359.36 1153.19 1359.36 1152.54 1359.36 1151.76L1359.36 1147.86 1342.59 1147.86 1342.59 1145.51C1345.55 1141.4 1348.49 1137.31 1351.41 1133.25 1354.33 1129.19 1357.27 1125.1 1360.23 1120.99Z" fill-rule="evenodd"/><text fill="#000000" fill-opacity="0" font-family="Arial,Arial_MSFontService,sans-serif" font-size="38.1548" x="1342.59" y="1154.38">4</text><path d="M1330.65 1251.22 1333.04 1251.22 1327.2 1277.24C1326.61 1279.88 1326.31 1281.88 1326.31 1283.24 1326.31 1284.32 1326.48 1285.1 1326.84 1285.59 1327.19 1286.07 1327.74 1286.32 1328.5 1286.32 1329.31 1286.32 1330.17 1285.98 1331.09 1285.32 1332.01 1284.66 1333.31 1283.4 1334.98 1281.53L1337.29 1283.8C1334.64 1286.59 1332.5 1288.48 1330.85 1289.48 1329.2 1290.48 1327.35 1290.98 1325.3 1290.98 1323.54 1290.98 1322.13 1290.33 1321.08 1289.05 1320.03 1287.77 1319.5 1286.13 1319.5 1284.13 1319.5 1282.07 1319.88 1279.45 1320.63 1276.26L1323.67 1263.01C1324.3 1260.31 1324.61 1258.28 1324.61 1256.93 1324.61 1255.72 1324.32 1254.89 1323.74 1254.46 1323.15 1254.03 1322.01 1253.79 1320.31 1253.73L1320.76 1251.58ZM1329.55 1235.7 1336.72 1235.7 1334.86 1243.56 1327.69 1243.56Z" fill-rule="evenodd"/><text fill="#000000" fill-opacity="0" font-family="Arial,Arial_MSFontService,sans-serif" font-size="55.2793" x="1319.5" y="1284.07">ğ‘–</text><path d="M1366.48 1267.17 1369.16 1267.17 1368.74 1274.38 1351.29 1274.38 1351.29 1286.02C1352.34 1285.67 1353.49 1285.38 1354.75 1285.16 1356 1284.94 1357.26 1284.83 1358.53 1284.83 1360.35 1284.83 1362.01 1285.09 1363.49 1285.59 1364.97 1286.1 1366.24 1286.82 1367.3 1287.77 1368.36 1288.71 1369.19 1289.85 1369.77 1291.19 1370.36 1292.53 1370.65 1294.04 1370.65 1295.7 1370.65 1297.61 1370.32 1299.31 1369.67 1300.8 1369.01 1302.29 1368.07 1303.55 1366.85 1304.59 1365.63 1305.64 1364.14 1306.43 1362.39 1306.98 1360.63 1307.52 1358.65 1307.8 1356.44 1307.8 1354.7 1307.8 1352.91 1307.63 1351.08 1307.29 1349.25 1306.95 1347.36 1306.46 1345.39 1305.8L1345.39 1299.19 1349.21 1299.19C1349.8 1301.19 1350.69 1302.63 1351.89 1303.49 1353.08 1304.36 1354.65 1304.79 1356.59 1304.79 1359.19 1304.79 1361.16 1304.11 1362.49 1302.76 1363.82 1301.41 1364.48 1299.3 1364.48 1296.42 1364.48 1293.66 1363.78 1291.61 1362.37 1290.27 1360.96 1288.93 1358.98 1288.26 1356.44 1288.26 1355.77 1288.26 1355.16 1288.27 1354.61 1288.29 1354.07 1288.31 1353.52 1288.36 1352.99 1288.44 1352.45 1288.52 1351.92 1288.62 1351.39 1288.76 1350.87 1288.9 1350.28 1289.06 1349.62 1289.24L1347.18 1287.9 1347.18 1269.17 1363.68 1269.17C1364.16 1269.15 1364.54 1269.12 1364.83 1269.08 1365.12 1269.04 1365.35 1268.95 1365.53 1268.81 1365.71 1268.67 1365.86 1268.48 1366 1268.23 1366.14 1267.98 1366.3 1267.63 1366.48 1267.17Z" fill-rule="evenodd"/><text fill="#000000" fill-opacity="0" font-family="Arial,Arial_MSFontService,sans-serif" font-size="40.627" x="1345.39" y="1302.72">5</text><path d="M1465.8 508.779 1468.11 508.779 1459.68 548.577C1458.82 552.684 1457.64 555.987 1456.16 558.486 1454.67 560.985 1452.74 562.863 1450.36 564.119 1447.98 565.376 1445.15 566.004 1441.85 566.004 1440.5 566.004 1439.35 565.869 1438.4 565.598L1439.34 562.032C1439.9 562.248 1440.93 562.356 1442.42 562.356 1443.71 562.356 1444.81 562.16 1445.72 561.769 1446.62 561.377 1447.47 560.728 1448.25 559.823 1449.04 558.918 1449.76 557.655 1450.42 556.034 1451.08 554.413 1451.7 552.319 1452.26 549.752L1458.83 520.573C1459.45 517.817 1459.76 515.79 1459.76 514.493 1459.76 513.278 1459.47 512.454 1458.89 512.021 1458.31 511.589 1457.17 511.346 1455.47 511.292L1455.91 509.144ZM1464.71 493.257 1471.88 493.257 1470.02 501.119 1462.84 501.119Z" fill-rule="evenodd"/><text fill="#000000" fill-opacity="0" font-family="Arial,Arial_MSFontService,sans-serif" font-size="72.7466" x="1438.4" y="556.91">ğ‘—</text><path d="M1490.06 526.368 1491.88 526.368C1491.84 527.461 1491.81 528.439 1491.79 529.302 1491.77 530.166 1491.76 531.005 1491.75 531.819 1491.74 532.633 1491.73 533.438 1491.73 534.232L1491.73 556.868C1491.73 557.484 1491.75 558.015 1491.79 558.462 1491.83 558.909 1491.9 559.286 1491.99 559.594 1492.08 559.902 1492.19 560.165 1492.34 560.383 1492.49 560.602 1492.67 560.79 1492.86 560.949 1493.1 561.187 1493.42 561.371 1493.82 561.5 1494.21 561.629 1494.72 561.738 1495.34 561.828 1495.95 561.917 1496.69 561.987 1497.56 562.036 1498.42 562.086 1499.46 562.121 1500.67 562.14L1500.67 564.732 1477.05 564.732 1477.05 562.14C1478.22 562.101 1479.21 562.056 1480.03 562.006 1480.84 561.957 1481.54 561.887 1482.11 561.798 1482.69 561.709 1483.15 561.609 1483.5 561.5 1483.84 561.391 1484.15 561.257 1484.41 561.098 1484.68 560.919 1484.92 560.726 1485.12 560.517 1485.32 560.309 1485.48 560.046 1485.6 559.728 1485.72 559.41 1485.81 559.023 1485.88 558.566 1485.95 558.109 1485.98 557.544 1485.98 556.868L1485.98 535.513C1485.98 534.738 1485.84 534.192 1485.54 533.874 1485.24 533.557 1484.81 533.398 1484.26 533.398 1483.64 533.398 1482.73 533.715 1481.52 534.351 1480.3 534.986 1478.74 535.93 1476.81 537.18 1476.55 536.724 1476.31 536.267 1476.1 535.81 1475.88 535.354 1475.65 534.887 1475.41 534.41 1477.87 533.06 1480.31 531.715 1482.72 530.375 1485.14 529.034 1487.58 527.699 1490.06 526.368Z" fill-rule="evenodd"/><text fill="#000000" fill-opacity="0" font-family="Arial,Arial_MSFontService,sans-serif" font-size="38.3633" x="1475.41" y="559.936">1</text><path d="M1620.9 508.779 1623.21 508.779 1614.78 548.577C1613.92 552.684 1612.74 555.987 1611.26 558.486 1609.77 560.985 1607.84 562.863 1605.46 564.119 1603.08 565.376 1600.25 566.004 1596.95 566.004 1595.6 566.004 1594.45 565.869 1593.5 565.598L1594.44 562.032C1595 562.248 1596.03 562.356 1597.52 562.356 1598.81 562.356 1599.91 562.16 1600.82 561.769 1601.72 561.377 1602.57 560.728 1603.35 559.823 1604.14 558.918 1604.86 557.655 1605.52 556.034 1606.18 554.413 1606.8 552.319 1607.36 549.752L1613.93 520.573C1614.55 517.817 1614.86 515.79 1614.86 514.493 1614.86 513.278 1614.57 512.454 1613.99 512.021 1613.41 511.589 1612.27 511.346 1610.57 511.292L1611.01 509.144ZM1619.81 493.257 1626.98 493.257 1625.12 501.119 1617.94 501.119Z" fill-rule="evenodd"/><text fill="#000000" fill-opacity="0" font-family="Arial,Arial_MSFontService,sans-serif" font-size="72.7466" x="1593.5" y="556.91">ğ‘—</text><path d="M1644.74 526.16C1646.81 526.16 1648.57 526.393 1650.03 526.86 1651.49 527.327 1652.68 527.957 1653.59 528.751 1654.5 529.546 1655.16 530.499 1655.57 531.611 1655.98 532.723 1656.18 533.924 1656.18 535.215 1656.18 535.989 1656.13 536.709 1656.02 537.374 1655.91 538.039 1655.72 538.695 1655.45 539.34 1655.18 539.985 1654.83 540.636 1654.39 541.291 1653.96 541.946 1653.41 542.641 1652.76 543.376 1652.26 544.011 1651.61 544.746 1650.82 545.58 1650.03 546.414 1649.16 547.307 1648.21 548.261 1647.27 549.214 1646.28 550.207 1645.25 551.239 1644.22 552.272 1643.21 553.294 1642.24 554.307 1641.27 555.32 1640.37 556.303 1639.56 557.256 1638.75 558.209 1638.08 559.083 1637.57 559.877L1648.59 559.877C1649.52 559.877 1650.26 559.842 1650.82 559.773 1651.38 559.703 1651.84 559.549 1652.2 559.311 1652.57 559.073 1652.88 558.71 1653.14 558.224 1653.4 557.737 1653.7 557.067 1654.04 556.213L1656.81 556.213C1656.71 557.623 1656.61 559.043 1656.52 560.472 1656.43 561.902 1656.34 563.322 1656.24 564.732L1631.01 564.732 1631.01 563.183C1631.49 562.111 1632.05 561.053 1632.68 560.011 1633.32 558.968 1634.03 557.911 1634.82 556.839 1635.62 555.766 1636.52 554.659 1637.54 553.518 1638.55 552.376 1639.67 551.189 1640.9 549.958 1642.77 548.092 1644.29 546.498 1645.46 545.178 1646.63 543.857 1647.55 542.681 1648.23 541.648 1648.9 540.616 1649.37 539.663 1649.61 538.789 1649.86 537.915 1649.99 536.982 1649.99 535.989 1649.99 534.976 1649.84 534.043 1649.55 533.189 1649.27 532.335 1648.85 531.611 1648.32 531.015 1647.78 530.419 1647.1 529.953 1646.28 529.615 1645.45 529.277 1644.51 529.109 1643.43 529.109 1641.59 529.109 1640.04 529.61 1638.79 530.613 1637.54 531.616 1636.56 533.07 1635.87 534.976L1631.97 534.976 1631.97 529.168C1634.51 528.116 1636.85 527.351 1638.98 526.875 1641.11 526.398 1643.04 526.16 1644.74 526.16Z" fill-rule="evenodd"/><text fill="#000000" fill-opacity="0" font-family="Arial,Arial_MSFontService,sans-serif" font-size="38.5718" x="1631.01" y="559.91">2</text><path d="M1796.24 508.779 1798.55 508.779 1790.12 548.577C1789.25 552.684 1788.08 555.987 1786.59 558.486 1785.1 560.985 1783.17 562.863 1780.8 564.119 1778.42 565.376 1775.58 566.004 1772.28 566.004 1770.93 566.004 1769.79 565.869 1768.84 565.598L1769.77 562.032C1770.34 562.248 1771.37 562.356 1772.85 562.356 1774.15 562.356 1775.25 562.16 1776.15 561.769 1777.06 561.377 1777.9 560.728 1778.69 559.823 1779.47 558.918 1780.19 557.655 1780.86 556.034 1781.52 554.413 1782.13 552.319 1782.7 549.752L1789.27 520.573C1789.89 517.817 1790.2 515.79 1790.2 514.493 1790.2 513.278 1789.91 512.454 1789.33 512.021 1788.75 511.589 1787.6 511.346 1785.9 511.292L1786.35 509.144ZM1795.14 493.257 1802.32 493.257 1800.45 501.119 1793.28 501.119Z" fill-rule="evenodd"/><text fill="#000000" fill-opacity="0" font-family="Arial,Arial_MSFontService,sans-serif" font-size="72.7466" x="1768.84" y="556.91">ğ‘—</text><path d="M1820.02 526.16C1821.61 526.16 1823.09 526.329 1824.47 526.666 1825.85 527.004 1827.05 527.515 1828.06 528.2 1829.07 528.885 1829.86 529.739 1830.43 530.762 1830.99 531.784 1831.28 532.971 1831.28 534.321 1831.28 535.592 1831.1 536.714 1830.74 537.687 1830.38 538.66 1829.83 539.543 1829.09 540.338 1828.34 541.132 1827.43 541.852 1826.35 542.497 1825.27 543.142 1824.02 543.763 1822.61 544.359L1822.61 544.716C1823.94 544.954 1825.18 545.337 1826.33 545.863 1827.49 546.389 1828.49 547.054 1829.36 547.858 1830.22 548.663 1830.9 549.591 1831.4 550.643 1831.89 551.696 1832.14 552.857 1832.14 554.128 1832.14 555.717 1831.84 557.191 1831.25 558.551 1830.65 559.911 1829.76 561.088 1828.57 562.081 1827.38 563.074 1825.91 563.848 1824.16 564.404 1822.41 564.96 1820.37 565.238 1818.02 565.238 1816.18 565.238 1814.3 565.054 1812.39 564.687 1810.49 564.32 1808.68 563.838 1806.97 563.242L1806.97 556.809 1810.82 556.809C1811.13 557.802 1811.51 558.651 1811.95 559.356 1812.38 560.06 1812.9 560.636 1813.48 561.083 1814.07 561.53 1814.74 561.853 1815.51 562.051 1816.27 562.25 1817.14 562.349 1818.11 562.349 1820.67 562.349 1822.62 561.738 1823.94 560.517 1825.26 559.296 1825.92 557.444 1825.92 554.962 1825.92 552.321 1825.05 550.321 1823.31 548.961 1821.57 547.6 1819 546.92 1815.58 546.92L1812.96 546.92 1812.96 544.061C1815.05 543.962 1816.85 543.669 1818.37 543.182 1819.89 542.696 1821.15 542.065 1822.16 541.291 1823.18 540.516 1823.93 539.613 1824.43 538.58 1824.92 537.548 1825.17 536.446 1825.17 535.274 1825.17 533.368 1824.61 531.864 1823.47 530.762 1822.34 529.66 1820.7 529.109 1818.56 529.109 1816.75 529.109 1815.24 529.605 1814.02 530.598 1812.8 531.591 1811.86 533.07 1811.2 535.036L1807.42 535.036 1807.42 529.168C1809.76 528.175 1811.97 527.426 1814.05 526.919 1816.12 526.413 1818.11 526.16 1820.02 526.16Z" fill-rule="evenodd"/><text fill="#000000" fill-opacity="0" font-family="Arial,Arial_MSFontService,sans-serif" font-size="39.0781" x="1806.97" y="560.353">3</text><path d="M1971.57 508.779 1973.88 508.779 1965.45 548.577C1964.59 552.684 1963.41 555.987 1961.93 558.486 1960.44 560.985 1958.51 562.863 1956.13 564.119 1953.75 565.376 1950.92 566.004 1947.62 566.004 1946.27 566.004 1945.12 565.869 1944.18 565.598L1945.11 562.032C1945.67 562.248 1946.7 562.356 1948.19 562.356 1949.48 562.356 1950.59 562.16 1951.49 561.769 1952.4 561.377 1953.24 560.728 1954.02 559.823 1954.81 558.918 1955.53 557.655 1956.19 556.034 1956.85 554.413 1957.47 552.319 1958.04 549.752L1964.6 520.573C1965.22 517.817 1965.53 515.79 1965.53 514.493 1965.53 513.278 1965.24 512.454 1964.66 512.021 1964.08 511.589 1962.94 511.346 1961.24 511.292L1961.68 509.144ZM1970.48 493.257 1977.65 493.257 1975.79 501.119 1968.61 501.119Z" fill-rule="evenodd"/><text fill="#000000" fill-opacity="0" font-family="Arial,Arial_MSFontService,sans-serif" font-size="72.7466" x="1944.18" y="556.91">ğ‘—</text><path d="M1994.8 533.547C1992.89 536.307 1990.99 539.047 1989.09 541.767 1987.2 544.488 1985.29 547.218 1983.36 549.958L1983.36 550.316 1994.8 550.316 1994.8 544.329C1994.8 543.654 1994.81 542.82 1994.83 541.827 1994.85 540.834 1994.87 539.826 1994.9 538.804 1994.93 537.781 1994.97 536.808 1995.01 535.885 1995.05 534.961 1995.09 534.182 1995.12 533.547ZM1995.66 526.577 2000.4 526.577 2000.4 550.316 2000.93 550.316C2001.75 550.316 2002.41 550.276 2002.91 550.197 2003.42 550.117 2003.83 549.953 2004.14 549.705 2004.44 549.457 2004.7 549.109 2004.91 548.663 2005.12 548.216 2005.34 547.635 2005.58 546.92L2008.11 546.92C2008.05 548.012 2007.99 549.095 2007.92 550.167 2007.85 551.239 2007.78 552.331 2007.72 553.443L2000.4 553.443 2000.4 557.345C2000.4 558.497 2000.42 559.39 2000.47 560.026 2000.52 560.661 2000.67 561.158 2000.92 561.515 2001.17 561.872 2001.53 562.14 2002.02 562.319 2002.51 562.498 2003.19 562.706 2004.06 562.945L2004.06 564.732 1991.19 564.732 1991.19 562.945C1991.79 562.786 1992.3 562.642 1992.71 562.513 1993.13 562.384 1993.48 562.235 1993.75 562.066 1994.03 561.897 1994.24 561.699 1994.37 561.47 1994.49 561.242 1994.59 560.954 1994.66 560.607 1994.73 560.259 1994.77 559.822 1994.78 559.296 1994.79 558.77 1994.8 558.119 1994.8 557.345L1994.8 553.443 1978.03 553.443 1978.03 551.09C1980.99 546.98 1983.93 542.894 1986.84 538.834 1989.76 534.773 1992.7 530.687 1995.66 526.577Z" fill-rule="evenodd"/><text fill="#000000" fill-opacity="0" font-family="Arial,Arial_MSFontService,sans-serif" font-size="38.1548" x="1978.03" y="559.962">4</text><path d="M2144.89 508.779 2147.2 508.779 2138.77 548.577C2137.91 552.684 2136.73 555.987 2135.24 558.486 2133.76 560.985 2131.83 562.863 2129.45 564.119 2127.07 565.376 2124.23 566.004 2120.94 566.004 2119.59 566.004 2118.44 565.869 2117.49 565.598L2118.43 562.032C2118.99 562.248 2120.02 562.356 2121.51 562.356 2122.8 562.356 2123.9 562.16 2124.81 561.769 2125.71 561.377 2126.56 560.728 2127.34 559.823 2128.13 558.918 2128.85 557.655 2129.51 556.034 2130.17 554.413 2130.79 552.319 2131.35 549.752L2137.92 520.573C2138.54 517.817 2138.85 515.79 2138.85 514.493 2138.85 513.278 2138.56 512.454 2137.98 512.021 2137.4 511.589 2136.26 511.346 2134.56 511.292L2135 509.144ZM2143.8 493.257 2150.97 493.257 2149.11 501.119 2141.93 501.119Z" fill-rule="evenodd"/><text fill="#000000" fill-opacity="0" font-family="Arial,Arial_MSFontService,sans-serif" font-size="72.7466" x="2117.49" y="556.91">ğ‘—</text><path d="M2177.25 524.73 2179.93 524.73 2179.52 531.938 2162.06 531.938 2162.06 543.584C2163.11 543.227 2164.27 542.939 2165.52 542.721 2166.77 542.502 2168.03 542.393 2169.3 542.393 2171.13 542.393 2172.78 542.646 2174.26 543.152 2175.74 543.659 2177.01 544.384 2178.07 545.327 2179.13 546.27 2179.96 547.412 2180.54 548.752 2181.13 550.092 2181.42 551.596 2181.42 553.264 2181.42 555.171 2181.09 556.868 2180.44 558.358 2179.78 559.847 2178.84 561.113 2177.62 562.155 2176.4 563.198 2174.91 563.992 2173.16 564.538 2171.4 565.084 2169.42 565.357 2167.21 565.357 2165.47 565.357 2163.68 565.188 2161.85 564.851 2160.03 564.513 2158.13 564.017 2156.16 563.362L2156.16 556.749 2159.98 556.749C2160.57 558.755 2161.47 560.19 2162.66 561.053 2163.85 561.917 2165.42 562.349 2167.36 562.349 2169.96 562.349 2171.93 561.674 2173.26 560.324 2174.59 558.973 2175.26 556.859 2175.26 553.979 2175.26 551.219 2174.55 549.169 2173.14 547.829 2171.73 546.488 2169.76 545.818 2167.21 545.818 2166.54 545.818 2165.93 545.828 2165.38 545.848 2164.84 545.868 2164.29 545.917 2163.76 545.997 2163.22 546.076 2162.69 546.186 2162.17 546.325 2161.64 546.464 2161.05 546.622 2160.39 546.801L2157.95 545.461 2157.95 526.726 2174.45 526.726C2174.93 526.706 2175.31 526.676 2175.6 526.637 2175.89 526.597 2176.12 526.507 2176.3 526.368 2176.48 526.229 2176.64 526.036 2176.77 525.788 2176.91 525.539 2177.07 525.187 2177.25 524.73Z" fill-rule="evenodd"/><text fill="#000000" fill-opacity="0" font-family="Arial,Arial_MSFontService,sans-serif" font-size="40.627" x="2156.16" y="560.279">5</text><path d="M1805.7 1432.57 1791.27 1458.1 1807.11 1458.1 1806.43 1445.05C1806.34 1443.27 1806.28 1441.04 1806.22 1438.36 1806.17 1435.69 1806.14 1433.76 1806.14 1432.57ZM1805.94 1424.02 1812.06 1424.02 1814.98 1469.2C1815.11 1471.34 1815.35 1473.01 1815.71 1474.21 1816.06 1475.41 1816.54 1476.3 1817.14 1476.88 1817.75 1477.47 1818.64 1477.84 1819.8 1478L1819.35 1479.98 1802.49 1479.98 1802.94 1478C1804.53 1477.86 1805.72 1477.24 1806.51 1476.13 1807.29 1475.03 1807.68 1473.08 1807.68 1470.3 1807.68 1469.24 1807.64 1468.1 1807.56 1466.85L1807.28 1461.63 1789.44 1461.63 1787.22 1465.6C1786.16 1467.46 1785.39 1469.06 1784.91 1470.4 1784.42 1471.74 1784.18 1472.92 1784.18 1473.95 1784.18 1476.22 1785.54 1477.57 1788.27 1478L1787.82 1479.98 1771.25 1479.98 1771.69 1478C1772.53 1477.89 1773.32 1477.56 1774.06 1477.01 1774.81 1476.45 1775.6 1475.61 1776.44 1474.49 1777.27 1473.37 1778.45 1471.51 1779.96 1468.92Z" fill-rule="evenodd"/><text fill="#000000" fill-opacity="0" font-family="Arial,Arial_MSFontService,sans-serif" font-size="55.9683" x="1771.25" y="1472.99">ğ´</text><text font-family="CMU Sans Serif,CMU Sans Serif_MSFontService,sans-serif" font-weight="500" font-size="73" transform="matrix(1 0 0 1 2427.96 747)">Cluster centers are </text><text font-family="CMU Sans Serif,CMU Sans Serif_MSFontService,sans-serif" font-weight="500" font-size="73" transform="matrix(1 0 0 1 2427.96 835)">non</text><text font-family="CMU Sans Serif,CMU Sans Serif_MSFontService,sans-serif" font-weight="500" font-size="73" transform="matrix(1 0 0 1 2540.25 835)">-</text><text font-family="CMU Sans Serif,CMU Sans Serif_MSFontService,sans-serif" font-weight="500" font-size="73" transform="matrix(1 0 0 1 2564.89 835)">zero rows, with </text><text font-family="CMU Sans Serif,CMU Sans Serif_MSFontService,sans-serif" font-weight="500" font-size="73" transform="matrix(1 0 0 1 2427.96 923)">each member, 1, and </text><text font-family="CMU Sans Serif,CMU Sans Serif_MSFontService,sans-serif" font-weight="500" font-size="73" transform="matrix(1 0 0 1 2427.96 1011)">non</text><text font-family="CMU Sans Serif,CMU Sans Serif_MSFontService,sans-serif" font-weight="500" font-size="73" transform="matrix(1 0 0 1 2540.25 1011)">-</text><text font-family="CMU Sans Serif,CMU Sans Serif_MSFontService,sans-serif" font-weight="500" font-size="73" transform="matrix(1 0 0 1 2564.89 1011)">members, 0</text><path d="M2395.1 863.428 2228.05 824.337 2228.57 822.106 2395.63 861.197ZM2229.64 837.654 2206 818 2235.91 810.878Z"/><path d="M0.951393-0.638581 177.545 262.46 175.642 263.738-0.951393 0.638581ZM185.456 251.63 189.365 282.127 162.623 266.956Z" transform="matrix(-1 0 0 1 2395.37 862)"/><text font-family="CMU Sans Serif,CMU Sans Serif_MSFontService,sans-serif" font-weight="500" font-size="73" transform="matrix(1 0 0 1 2423.09 1366)">Each time series must </text><text font-family="CMU Sans Serif,CMU Sans Serif_MSFontService,sans-serif" font-weight="500" font-size="73" transform="matrix(1 0 0 1 2423.09 1454)">be in 1 cluster; so, </text><text font-family="CMU Sans Serif,CMU Sans Serif_MSFontService,sans-serif" font-weight="500" font-size="73" transform="matrix(1 0 0 1 2423.09 1542)">the sum of each </text><text font-family="CMU Sans Serif,CMU Sans Serif_MSFontService,sans-serif" font-weight="500" font-size="73" transform="matrix(1 0 0 1 2423.09 1630)">column = 1</text><path d="M2389.89 1482.77 2154.91 1363.4 2155.95 1361.36 2390.93 1480.73ZM2153.29 1376.71 2135 1352 2165.75 1352.2Z"/><path d="M1416.44 700.502C1395.39 681.493 1393.73 649.016 1412.74 627.964L1418.92 621.119C1437.93 600.067 1470.41 598.411 1491.46 617.42L2178.04 1237.38C2199.1 1256.39 2200.75 1288.87 2181.74 1309.92L2175.56 1316.76C2156.55 1337.82 2124.08 1339.47 2103.03 1320.46Z" stroke="#BC8C00" stroke-width="4.58333" stroke-miterlimit="8" fill="#FFC000" fill-rule="evenodd" fill-opacity="0.419608"/><path d="M0.241353-1.12013 422.47 89.8574 421.987 92.0976-0.241353 1.12013ZM420.645 76.5707 444.632 95.8047 414.852 103.454Z" transform="matrix(1 0 0 -1 1146 955.805)"/><text font-family="CMU Sans Serif,CMU Sans Serif_MSFontService,sans-serif" font-weight="500" font-size="73" transform="matrix(1 0 0 1 699.175 897)">The diagonal </text><text font-family="CMU Sans Serif,CMU Sans Serif_MSFontService,sans-serif" font-weight="500" font-size="73" transform="matrix(1 0 0 1 699.175 985)">indicates the </text><text font-family="CMU Sans Serif,CMU Sans Serif_MSFontService,sans-serif" font-weight="500" font-size="73" transform="matrix(1 0 0 1 699.175 1073)">centroids</text></g></svg>